<svg width="20" height="20" viewBox="0 0 24 24" fill="none" xmlns="http://www.w3.org/2000/svg">
<path d="M21.3333 13.9032V9.6C21.3333 5.7396 18.42 2.4876 14.4733 1.5096C14.0827 0.624 13.128 0 12 0C10.872 0 9.91733 0.624 9.52667 1.5096C5.58 2.4888 2.66667 5.7396 2.66667 9.6V13.9032L0.390668 15.9516C0.266611 16.0628 0.168228 16.1951 0.101181 16.3407C0.0341335 16.4863 -0.000252599 16.6424 1.3969e-06 16.8V19.2C1.3969e-06 19.5183 0.140477 19.8235 0.390526 20.0485C0.640574 20.2736 0.979713 20.4 1.33333 20.4H22.6667C23.0203 20.4 23.3594 20.2736 23.6095 20.0485C23.8595 19.8235 24 19.5183 24 19.2V16.8C24.0003 16.6424 23.9659 16.4863 23.8988 16.3407C23.8318 16.1951 23.7334 16.0628 23.6093 15.9516L21.3333 13.9032ZM21.3333 18H2.66667V17.2968L4.94267 15.2484C5.06672 15.1372 5.16511 15.0049 5.23215 14.8593C5.2992 14.7137 5.33359 14.5576 5.33333 14.4V9.6C5.33333 6.2916 8.324 3.6 12 3.6C15.676 3.6 18.6667 6.2916 18.6667 9.6V14.4C18.6667 14.7192 18.8067 15.024 19.0573 15.2484L21.3333 17.2968V18ZM12 24C12.8257 24.0009 13.6313 23.7703 14.3047 23.3402C14.978 22.9101 15.4858 22.3018 15.7573 21.6H8.24267C8.51422 22.3018 9.02197 22.9101 9.69535 23.3402C10.3687 23.7703 11.1743 24.0009 12 24V24Z" fill="white"/>
</svg>
