<svg width="20" height="20" viewBox="0 0 26 26" fill="none" xmlns="http://www.w3.org/2000/svg">
<path d="M4.32951 25.0319L4.32945 25.0319C3.97115 25.108 3.61168 25.1777 3.2512 25.241L3.25025 25.2411C2.98961 25.2858 2.76692 25.1588 2.6411 24.978C2.51652 24.7989 2.47412 24.5529 2.56604 24.3209L4.32951 25.0319ZM4.32951 25.0319C6.99732 24.4645 8.67416 23.7207 9.5087 23.2792L4.32951 25.0319ZM2.93082 23.2963L2.93099 23.2964C3.28758 22.187 3.57901 20.9189 3.69567 19.733C1.86065 17.7236 0.75 15.1086 0.75 12.2515C0.75 5.88448 6.25034 0.75 13 0.75C19.7497 0.75 25.25 5.88448 25.25 12.2515C25.25 18.6185 19.7498 23.7529 13.0004 23.7531C13.0002 23.7531 13.0001 23.7531 13 23.7531L2.93082 23.2963ZM2.93082 23.2963L2.92825 23.3055M2.93082 23.2963L2.92825 23.3055M2.92825 23.3055L2.925 23.3171M2.92825 23.3055L2.925 23.3171M2.925 23.3171C2.81635 23.6561 2.69664 23.9908 2.56609 24.3207L2.925 23.3171ZM5.2001 18.3404L5.20002 18.3403C3.64854 16.6731 2.75 14.5437 2.75 12.2515C2.75 7.27242 7.13017 2.85736 13 2.85736C18.8698 2.85736 23.25 7.27242 23.25 12.2515C23.25 17.2323 18.8699 21.6457 13 21.6457H12.9996C11.9653 21.6475 10.9351 21.5038 9.93532 21.2182C9.51508 21.0978 9.06842 21.1482 8.68225 21.3577C8.15828 21.6421 7.02979 22.1768 5.20178 22.6643C5.43796 21.733 5.60338 20.7825 5.69634 19.8222L5.69651 19.8204C5.72056 19.551 5.68892 19.279 5.60351 19.0236C5.51809 18.7681 5.38072 18.5347 5.2001 18.3404Z" fill="#11348F" stroke="white" stroke-width="1"/>
</svg>
