<svg width="20" height="24" viewBox="0 0 26 24" fill="none" xmlns="http://www.w3.org/2000/svg">
<path d="M18.3937 7.66546L16.5087 6.14443L7.08363 13.7556C6.71243 14.0555 6.41801 14.4115 6.21717 14.8033C6.01633 15.1951 5.913 15.6151 5.91309 16.0391C5.91318 16.4632 6.01667 16.8831 6.21768 17.2749C6.41868 17.6666 6.71324 18.0226 7.08455 18.3224C7.45587 18.6222 7.89666 18.86 8.38175 19.0222C8.86685 19.1845 9.38676 19.2679 9.91179 19.2678C10.4368 19.2678 10.9567 19.1842 11.4417 19.0218C11.9268 18.8595 12.3674 18.6216 12.7386 18.3216L24.0487 9.18798C25.2983 8.17849 26.0002 6.80939 26 5.38189C25.9998 3.95438 25.2976 2.5854 24.0477 1.5761C22.7979 0.566799 21.1029 -0.000140629 19.3355 2.61656e-08C17.5681 0.000140681 15.8732 0.56735 14.6236 1.57685L2.74904 11.1665L2.72304 11.186C-0.907681 14.1186 -0.907681 18.8707 2.72304 21.8017C6.35377 24.7328 12.2372 24.7328 15.8679 21.8017L15.8921 21.7807L15.8939 21.7822L24.0004 15.2361L22.1154 13.7151L14.0089 20.2597L13.9848 20.2792C11.3996 22.3672 7.19506 22.3672 4.60991 20.2792C3.99326 19.78 3.50466 19.1875 3.17213 18.5355C2.8396 17.8835 2.66966 17.1849 2.67208 16.4798C2.67449 15.7746 2.84921 15.0768 3.18621 14.4263C3.5232 13.7758 4.01585 13.1854 4.63591 12.689L4.63405 12.6875L16.5105 3.09788C18.0687 1.83785 20.6055 1.83785 22.1655 3.09788C23.7255 4.3579 23.7237 6.40543 22.1655 7.66396L10.8555 16.7976C10.6024 16.9857 10.2691 17.0875 9.92528 17.0817C9.58145 17.076 9.25366 16.9632 9.01036 16.7669C8.76707 16.5706 8.62708 16.3059 8.61965 16.0282C8.61222 15.7505 8.73792 15.4812 8.97049 15.2766L18.3955 7.66396L18.3937 7.66546Z" fill="white"/>
</svg>
