<svg width="20" height="19" viewBox="0 0 20 19" fill="none" xmlns="http://www.w3.org/2000/svg">
<ellipse cx="10" cy="9.5" rx="10" ry="9.5" fill="#F70000"/>
<path d="M6.04718 12.8001C5.97385 12.8001 5.90785 12.7744 5.84918 12.7231C5.79785 12.6717 5.77218 12.6057 5.77218 12.5251V7.28908L4.26518 8.44408C4.19918 8.49541 4.12952 8.51375 4.05618 8.49908C3.99018 8.48441 3.93152 8.44408 3.88018 8.37808L3.23118 7.53108C3.18718 7.46508 3.16885 7.39541 3.17618 7.32208C3.19085 7.24141 3.23485 7.17908 3.30818 7.13508L5.83818 5.17708C5.88218 5.14775 5.92252 5.12941 5.95918 5.12208C6.00318 5.10741 6.05085 5.10008 6.10218 5.10008H7.47718C7.55052 5.10008 7.61285 5.12575 7.66418 5.17708C7.72285 5.22841 7.75218 5.29441 7.75218 5.37508V12.5251C7.75218 12.6057 7.72285 12.6717 7.66418 12.7231C7.61285 12.7744 7.55052 12.8001 7.47718 12.8001H6.04718ZM12.186 12.9101C11.6433 12.9101 11.1666 12.8477 10.756 12.7231C10.3526 12.5984 10.019 12.4261 9.75496 12.2061C9.49096 11.9787 9.29296 11.7221 9.16096 11.4361C9.02896 11.1427 8.96296 10.8274 8.96296 10.4901C8.96296 10.0867 9.06196 9.73108 9.25996 9.42308C9.46529 9.11508 9.72196 8.87675 10.03 8.70808C9.77329 8.53941 9.57529 8.33041 9.43596 8.08108C9.30396 7.82441 9.23796 7.52741 9.23796 7.19008C9.23796 6.77941 9.34429 6.40908 9.55696 6.07908C9.76962 5.74908 10.0923 5.48508 10.525 5.28708C10.9576 5.08908 11.5113 4.99008 12.186 4.99008C12.8533 4.99008 13.4033 5.08908 13.836 5.28708C14.2686 5.47775 14.5876 5.73808 14.793 6.06808C15.0056 6.39808 15.112 6.76841 15.112 7.17908C15.112 7.50908 15.046 7.80608 14.914 8.07008C14.782 8.32675 14.5913 8.53941 14.342 8.70808C14.6646 8.86941 14.925 9.10775 15.123 9.42308C15.321 9.73841 15.42 10.0977 15.42 10.5011C15.42 10.9411 15.299 11.3444 15.057 11.7111C14.8223 12.0777 14.4666 12.3711 13.99 12.5911C13.5133 12.8037 12.912 12.9101 12.186 12.9101ZM12.186 11.5131C12.4206 11.5131 12.6296 11.4727 12.813 11.3921C13.0036 11.3041 13.154 11.1867 13.264 11.0401C13.374 10.8861 13.429 10.7064 13.429 10.5011C13.429 10.2811 13.374 10.0977 13.264 9.95108C13.154 9.80441 13.0036 9.69075 12.813 9.61008C12.6296 9.52941 12.4206 9.48908 12.186 9.48908C11.9513 9.48908 11.7386 9.52941 11.548 9.61008C11.3573 9.69075 11.207 9.80441 11.097 9.95108C10.987 10.0977 10.932 10.2811 10.932 10.5011C10.932 10.7064 10.987 10.8861 11.097 11.0401C11.207 11.1867 11.3573 11.3041 11.548 11.3921C11.7386 11.4727 11.9513 11.5131 12.186 11.5131ZM12.186 8.15808C12.3913 8.15808 12.5783 8.12141 12.747 8.04808C12.9156 7.96741 13.0476 7.86475 13.143 7.74008C13.2383 7.60808 13.286 7.45408 13.286 7.27808C13.286 7.10208 13.2383 6.94808 13.143 6.81608C13.055 6.68408 12.9266 6.58141 12.758 6.50808C12.5893 6.43475 12.3986 6.39808 12.186 6.39808C11.9733 6.39808 11.7826 6.43475 11.614 6.50808C11.4453 6.58141 11.3133 6.68408 11.218 6.81608C11.13 6.94808 11.086 7.10208 11.086 7.27808C11.086 7.45408 11.13 7.60808 11.218 7.74008C11.3133 7.87208 11.4453 7.97475 11.614 8.04808C11.7826 8.12141 11.9733 8.15808 12.186 8.15808Z" fill="white"/>
</svg>
