<svg width="20" height="21" viewBox="0 0 25 26" fill="none" xmlns="http://www.w3.org/2000/svg">
<path d="M24 22.3333H8M0 3.66666H5.33333H0ZM24 3.66666H10.6667H24ZM0 13H16H0ZM24 13H21.3333H24ZM0 22.3333H2.66667H0Z" stroke="white" stroke-width="2" stroke-linecap="round"/>
<path d="M8.00004 6.33333C9.4728 6.33333 10.6667 5.13943 10.6667 3.66667C10.6667 2.19391 9.4728 1 8.00004 1C6.52728 1 5.33337 2.19391 5.33337 3.66667C5.33337 5.13943 6.52728 6.33333 8.00004 6.33333Z" stroke="white" stroke-width="2" stroke-linecap="round"/>
<path d="M18.6667 15.6667C20.1394 15.6667 21.3333 14.4728 21.3333 13C21.3333 11.5273 20.1394 10.3333 18.6667 10.3333C17.1939 10.3333 16 11.5273 16 13C16 14.4728 17.1939 15.6667 18.6667 15.6667Z" stroke="white" stroke-width="2" stroke-linecap="round"/>
<path d="M5.33341 25C6.80617 25 8.00008 23.8061 8.00008 22.3333C8.00008 20.8606 6.80617 19.6667 5.33341 19.6667C3.86066 19.6667 2.66675 20.8606 2.66675 22.3333C2.66675 23.8061 3.86066 25 5.33341 25Z" stroke="white" stroke-width="2" stroke-linecap="round"/>
</svg>
