<svg width="26" height="25" viewBox="0 0 26 30" fill="none" xmlns="http://www.w3.org/2000/svg">
<path d="M12.595 19.5C14.5038 19.5 16.3344 18.8679 17.6841 17.7427C19.0339 16.6174 19.7921 15.0913 19.7921 13.5V6.00001C19.7921 4.40871 19.0339 2.88258 17.6841 1.75736C16.3344 0.632142 14.5038 0 12.595 0C10.6862 0 8.85556 0.632142 7.50584 1.75736C6.15611 2.88258 5.39784 4.40871 5.39784 6.00001V13.5C5.39784 15.0913 6.15611 16.6174 7.50584 17.7427C8.85556 18.8679 10.6862 19.5 12.595 19.5ZM8.99641 6.00001C8.99641 5.20436 9.37555 4.4413 10.0504 3.87869C10.7253 3.31608 11.6406 3 12.595 3C13.5494 3 14.4647 3.31608 15.1396 3.87869C15.8144 4.4413 16.1936 5.20436 16.1936 6.00001V13.5C16.1936 14.2957 15.8144 15.0587 15.1396 15.6213C14.4647 16.184 13.5494 16.5 12.595 16.5C11.6406 16.5 10.7253 16.184 10.0504 15.6213C9.37555 15.0587 8.99641 14.2957 8.99641 13.5V6.00001Z" fill="white"/>
<path d="M25.19 13.5C25.19 13.1021 25.0004 12.7206 24.663 12.4393C24.3256 12.158 23.8679 12 23.3907 12C22.9135 12 22.4559 12.158 22.1184 12.4393C21.781 12.7206 21.5914 13.1021 21.5914 13.5C21.5914 15.4891 20.6436 17.3968 18.9564 18.8033C17.2693 20.2098 14.981 21 12.595 21C10.209 21 7.92072 20.2098 6.23356 18.8033C4.54641 17.3968 3.59857 15.4891 3.59857 13.5C3.59857 13.1021 3.409 12.7206 3.07157 12.4393C2.73414 12.158 2.27649 12 1.79929 12C1.32209 12 0.86443 12.158 0.526999 12.4393C0.189567 12.7206 0 13.1021 0 13.5C0.00354659 16.0227 1.0965 18.4601 3.0789 20.3662C4.73748 21.9609 6.92589 23.0945 9.35063 23.6334C10.1675 23.8149 10.7957 24.5097 10.7957 25.3465C10.7957 26.2597 10.0554 27 9.14219 27H6.99922C6.57451 27 6.1672 27.1406 5.86689 27.391C5.56657 27.6414 5.39786 27.9809 5.39786 28.335V28.665C5.39786 29.0191 5.56657 29.3586 5.86689 29.609C6.1672 29.8593 6.57451 30 6.99922 30H18.1908C18.6155 30 19.0228 29.8593 19.3231 29.609C19.6234 29.3586 19.7921 29.0191 19.7921 28.665V28.335C19.7921 27.9809 19.6234 27.6414 19.3231 27.391C19.0228 27.1406 18.6155 27 18.1908 27H16.0478C15.1346 27 14.3943 26.2597 14.3943 25.3465C14.3943 24.5097 15.0225 23.8149 15.8394 23.6334C18.2641 23.0945 20.4525 21.9609 22.1111 20.3662C24.0935 18.4601 25.1865 16.0227 25.19 13.5Z" fill="white"/>
</svg>
