<svg width="30" height="26" viewBox="0 0 40 26" fill="none" xmlns="http://www.w3.org/2000/svg">
<path fill-rule="evenodd" clip-rule="evenodd" d="M0.885498 5.2C0.885498 3.82087 1.39667 2.49823 2.30656 1.52304C3.21645 0.547855 4.45053 3.60132e-08 5.73732 3.60132e-08H23.9316C25.1084 -0.000148325 26.2452 0.458101 27.1301 1.28941C28.0151 2.12072 28.5881 3.26843 28.7422 4.5188L36.2868 0.9256C36.6561 0.749246 37.0606 0.674605 37.4637 0.708462C37.8667 0.742319 38.2555 0.8836 38.5947 1.11946C38.9338 1.35533 39.2126 1.67829 39.4056 2.059C39.5987 2.43971 39.6999 2.8661 39.7 3.2994V22.7006C39.6997 23.1336 39.5985 23.5596 39.4055 23.94C39.2126 24.3204 38.9341 24.6431 38.5953 24.8789C38.2565 25.1147 37.8681 25.2561 37.4654 25.2902C37.0627 25.3244 36.6584 25.2502 36.2892 25.0744L28.7422 21.4812C28.5881 22.7316 28.0151 23.8793 27.1301 24.7106C26.2452 25.5419 25.1084 26.0001 23.9316 26H5.73732C4.45053 26 3.21645 25.4521 2.30656 24.477C1.39667 23.5018 0.885498 22.1791 0.885498 20.8V5.2ZM28.7835 18.655L37.2741 22.7006V3.2994L28.7835 7.345V18.655ZM5.73732 2.6C5.09392 2.6 4.47689 2.87393 4.02194 3.36152C3.56699 3.84912 3.31141 4.51044 3.31141 5.2V20.8C3.31141 21.4896 3.56699 22.1509 4.02194 22.6385C4.47689 23.1261 5.09392 23.4 5.73732 23.4H23.9316C24.575 23.4 25.1921 23.1261 25.647 22.6385C26.102 22.1509 26.3575 21.4896 26.3575 20.8V5.2C26.3575 4.51044 26.102 3.84912 25.647 3.36152C25.1921 2.87393 24.575 2.6 23.9316 2.6H5.73732Z" fill="white"/>
</svg>
